<?xml version="1.0" encoding="UTF-8" standalone="no" ?>
<!DOCTYPE svg PUBLIC "-//W3C//DTD SVG 1.1//EN" "http://www.w3.org/Graphics/SVG/1.1/DTD/svg11.dtd">
<svg xmlns="http://www.w3.org/2000/svg" xmlns:xlink="http://www.w3.org/1999/xlink" version="1.1" xml:space="preserve">
<desc>Created with Fabric.js 4.2.0</desc>
<defs>
</defs>
<g transform="matrix(0 0 0 0 0 0)" id="fb359952-8956-4918-972c-4a008216ec84"  >
</g>
<g transform="matrix(1 0 0 1 10 10)" id="6b66c258-9cb5-4368-b08f-239951a7f385"  >
<rect style="stroke: none; stroke-width: 1; stroke-dasharray: none; stroke-linecap: butt; stroke-dashoffset: 0; stroke-linejoin: miter; stroke-miterlimit: 4; fill: rgb(255,255,255); fill-rule: nonzero; opacity: 1;" vector-effect="non-scaling-stroke"  x="-10" y="-10" rx="0" ry="0" width="20" height="20" />
</g>
<g transform="matrix(0.47 0 0 0.47 9.99 9.99)"  >
<g style="" vector-effect="non-scaling-stroke"   >
		<g transform="matrix(1 0 0 1 2.2 -0.2)"  >
<path style="stroke: none; stroke-width: 1; stroke-dasharray: none; stroke-linecap: butt; stroke-dashoffset: 0; stroke-linejoin: miter; stroke-miterlimit: 4; fill: rgb(0,0,0); fill-rule: evenodd; opacity: 1;" vector-effect="non-scaling-stroke"  transform=" translate(-104.2, -408.3)" d="M 109.5 408.5 C 109.5 411.73 107.46 414.483 104.597 415.536 L 104.66699999999999 415.5 C 105.83399999999999 414.5 106.481 412.533 106.66699999999999 411.666 C 106.88099999999999 410.666 106.96999999999998 410.366 106.16699999999999 409.706 C 105.85699999999999 409.45300000000003 105.48999999999998 409.51 105.12699999999998 409.23 C 104.88099999999999 409.04 104.77099999999999 408.64000000000004 104.52099999999999 408.5 C 103.92699999999999 408.163 103.41399999999999 408.61 102.567 408.723 C 102.17928446452639 408.76664415358863 101.78671470884485 408.72465625798094 101.41699999999999 408.6 C 101.40999999999998 408.6 101.40999999999998 408.6 101.40399999999998 408.596 L 101.32099999999998 408.56600000000003 C 101.15699999999998 408.48400000000004 101.24399999999999 408.36 101.32699999999998 408.206 L 101.32099999999998 408.206 C 101.40699999999998 408.036 101.40699999999998 407.83000000000004 101.27099999999999 407.677 C 101.08099999999999 407.463 100.73099999999998 407.463 100.46699999999998 407.45300000000003 C 100.36099999999999 407.45000000000005 100.25699999999999 407.45300000000003 100.15399999999998 407.45700000000005 L 100.15099999999998 407.45300000000003 C 100.11099999999998 407.45300000000003 100.06699999999998 407.45700000000005 100.02699999999999 407.45700000000005 L 99.98999999999998 407.45700000000005 C 99.66699999999999 407.46400000000006 99.32399999999998 407.42300000000006 99.09699999999998 407.14300000000003 C 98.83399999999997 406.79 98.80699999999997 406.41 99.19399999999997 406.05300000000005 C 99.47399999999998 405.79300000000006 100.05699999999997 405.25300000000004 101.00099999999998 405.833 C 101.60399999999997 406.20300000000003 102.16699999999997 406.5 102.66699999999997 406.333 C 102.99699999999997 406.223 103.14699999999998 406.03000000000003 102.76099999999997 405.463 C 102.60729159682751 405.2517863572978 102.5316544861325 404.99377191427277 102.54699999999997 404.733 C 102.61399999999996 403.957 103.23399999999997 403.89300000000003 103.71099999999997 403.533 C 104.17699999999996 403.177 104.39099999999998 402.59000000000003 104.25699999999998 402.076 C 104.15099999999998 401.663 103.74699999999997 401.20300000000003 102.97699999999998 401.06600000000003 C 106.71123011602289 401.5516656960873 109.50429524941217 404.73432145967035 109.50099999999998 408.50000000000006" stroke-linecap="round" />
</g>
		<g transform="matrix(1 0 0 1 -2.7 0.61)"  >
<path style="stroke: none; stroke-width: 1; stroke-dasharray: none; stroke-linecap: butt; stroke-dashoffset: 0; stroke-linejoin: miter; stroke-miterlimit: 4; fill: rgb(0,0,0); fill-rule: evenodd; opacity: 1;" vector-effect="non-scaling-stroke"  transform=" translate(-99.3, -409.11)" d="M 104.107 415.696 C 101.84042892092302 416.3603515356109 99.39331516860481 415.91787968776157 97.50289884731741 414.5018876144833 C 95.61248252602999 413.085895541205 94.49977469551683 410.86192873910596 94.5 408.5 C 94.49689506575768 405.9634655571731 95.77948222779997 403.59818961378835 97.907 402.217 C 97.15889950555842 402.8347656266433 96.58842719940559 403.6402600988518 96.25399999999999 404.551 C 95.50099999999999 406.768 96.03699999999999 408.626 98.544 408.626 C 99.377 408.626 99.944 409.18699999999995 99.877 411.001 C 99.86399999999999 411.404 100.39699999999999 412.78099999999995 102.327 412.89099999999996 C 103.027 412.931 103.511 413.94399999999996 103.657 414.631 C 103.717 414.921 103.78399999999999 415.28099999999995 103.914 415.601 C 103.94837892755224 415.67379433689854 104.02820496235479 415.7135005511009 104.107 415.697" stroke-linecap="round" />
</g>
		<g transform="matrix(1 0 0 1 0 0)"  >
<path style="stroke: none; stroke-width: 1; stroke-dasharray: none; stroke-linecap: butt; stroke-dashoffset: 0; stroke-linejoin: miter; stroke-miterlimit: 4; fill: rgb(0,0,0); fill-rule: nonzero; opacity: 1;" vector-effect="non-scaling-stroke"  transform=" translate(-102, -408.5)" d="M 110 408.5 C 110 412.9182779986464 106.41827799864635 416.5 102 416.5 C 97.58172200135365 416.5 94 412.9182779986464 94 408.5 C 94 404.0817220013536 97.58172200135365 400.5 102 400.5 C 106.41827799864635 400.5 110 404.0817220013536 110 408.5 z M 109 408.5 C 109 404.6340067511845 105.86599324881556 401.5 102 401.5 C 98.13400675118444 401.5 95 404.6340067511845 95 408.5 C 95 412.3659932488155 98.13400675118444 415.5 102 415.5 C 105.86599324881556 415.5 109 412.3659932488155 109 408.5 z" stroke-linecap="round" />
</g>
</g>
</g>
</svg>